<svg xmlns="http://www.w3.org/2000/svg" viewBox="0 0 120 120" width="120" height="120"><g fill="none" stroke="#16140f" stroke-width="6" stroke-linejoin="round" stroke-linecap="round"><path fill="#16140f" d="M10,31 L30,21 L92,21 L92,35 L40,35 Z"></path><path fill="#16140f" d="M42,84 L78,84 L73,71 L47,71 Z"></path><path d="M60,71 L60,53"></path><path stroke-width="5" d="M60,59 L45,50 M45,50 L40,36 M45,50 L53,37 M60,53 L60,36 M60,56 L75,48 M75,48 L80,36 M75,48 L67,37"></path></g><g fill="#16140f"><circle cx="40" cy="36" r="3.2"></circle><circle cx="53" cy="37" r="3.2"></circle><circle cx="60" cy="36" r="3.2"></circle><circle cx="80" cy="36" r="3.2"></circle><circle cx="67" cy="37" r="3.2"></circle></g></svg>