<svg xmlns="http://www.w3.org/2000/svg" viewBox="0 0 120 120" width="120" height="120"><g fill="none" stroke="#c2452b" stroke-width="5" stroke-linejoin="round" stroke-linecap="round"><path fill="#c2452b" d="M10,31 L30,22 L92,22 L92,34 L40,34 Z"></path><path fill="#c2452b" d="M42,83 L78,83 L73,71 L47,71 Z"></path><path stroke-width="4.5" d="M60,71 L60,55"></path><path stroke-width="3" d="M60,60 L48,52 M48,52 L42,46 M42,46 L36,35 M42,46 L45,36 M48,52 L52,47 M52,47 L52,35 M60,57 L72,50 M72,50 L78,45 M78,45 L84,35 M78,45 L76,36 M72,50 L68,46 M68,46 L69,35 M60,55 L60,46 M60,46 L56,35 M60,46 L64,35"></path></g><g fill="#c2452b"><circle cx="36" cy="35" r="2.4"></circle><circle cx="45" cy="36" r="2.4"></circle><circle cx="52" cy="35" r="2.4"></circle><circle cx="56" cy="35" r="2.4"></circle><circle cx="64" cy="35" r="2.4"></circle><circle cx="69" cy="35" r="2.4"></circle><circle cx="76" cy="36" r="2.4"></circle><circle cx="84" cy="35" r="2.4"></circle></g></svg>